<?xml version="1.0" encoding="UTF-8"?>
<svg width="22px" height="23px" viewBox="0 0 22 23" version="1.1" xmlns="http://www.w3.org/2000/svg" xmlns:xlink="http://www.w3.org/1999/xlink">
    <!-- Generator: Sketch 54.1 (76490) - https://sketchapp.com -->
    <title>Icon - Shopping Cart</title>
    <desc>Created with Sketch.</desc>
    <g id="Desktop" stroke="none" stroke-width="1" fill="none" fill-rule="evenodd">
        <g id="Icon---Shopping-Cart" fill-rule="nonzero">
            <circle id="Oval" fill="#FDF5F1" cx="9" cy="21" r="2"></circle>
            <circle id="Oval-Copy" fill="#FDF5F1" cx="17" cy="21" r="2"></circle>
            <polygon id="Path-3" fill="#FDF5F1" points="4.76317201 4.76060606 22 4.76060606 20.0169769 14.1807924 6.11104215 14.1807924"></polygon>
            <path d="M5.03649585,4.76060606 L22,4.76060606 L20.0169769,14.1807924 L6.55041204,14.1807924 L6.99646898,16.9563354 L19.8366703,16.9563354 C20.1250079,16.9563354 20.3587517,17.1899677 20.3587517,17.4781677 C20.3587517,17.7663677 20.1250079,18 19.8366703,18 L6.10664788,18 L3.38159875,1.04366457 L0.52208137,1.04366457 C0.233743791,1.04366457 0,0.810032295 0,0.521832283 C0,0.233632271 0.233743791,0 0.52208137,0 L4.27141985,0 L5.03649585,4.76060606 Z M6.34498553,13.1807924 L19.2055682,13.1807924 L20.7675756,5.76060606 L5.15248893,5.76060606 L6.34498553,13.1807924 Z M9,23 C7.8954305,23 7,22.1045695 7,21 C7,19.8954305 7.8954305,19 9,19 C10.1045695,19 11,19.8954305 11,21 C11,22.1045695 10.1045695,23 9,23 Z M9,22 C9.55228475,22 10,21.5522847 10,21 C10,20.4477153 9.55228475,20 9,20 C8.44771525,20 8,20.4477153 8,21 C8,21.5522847 8.44771525,22 9,22 Z M17,23 C15.8954305,23 15,22.1045695 15,21 C15,19.8954305 15.8954305,19 17,19 C18.1045695,19 19,19.8954305 19,21 C19,22.1045695 18.1045695,23 17,23 Z M17,22 C17.5522847,22 18,21.5522847 18,21 C18,20.4477153 17.5522847,20 17,20 C16.4477153,20 16,20.4477153 16,21 C16,21.5522847 16.4477153,22 17,22 Z" id="Combined-Shape-Copy" fill="#000000"></path>
        </g>
    </g>
</svg>