<?xml version="1.0" encoding="UTF-8"?>
<svg width="22px" height="23px" viewBox="0 0 22 23" version="1.1" xmlns="http://www.w3.org/2000/svg" xmlns:xlink="http://www.w3.org/1999/xlink">
    <!-- Generator: Sketch 53.2 (72643) - https://sketchapp.com -->
    <title>Combined Shape</title>
    <desc>Created with Sketch.</desc>
    <defs>
        <linearGradient x1="100%" y1="50%" x2="0%" y2="50%" id="linearGradient-1">
            <stop stop-color="#3F9EDF" offset="0%"></stop>
            <stop stop-color="#02205F" offset="100%"></stop>
        </linearGradient>
    </defs>
    <g id="Style-Guide" stroke="none" stroke-width="1" fill="none" fill-rule="evenodd">
        <g id="Icons" transform="translate(-80.000000, -164.000000)" fill="#225C73" fill-rule="nonzero">
            <path d="M85.0364959,168.760606 L102,168.760606 L100.016977,178.180792 L86.550412,178.180792 L86.996469,180.956335 L99.8366703,180.956335 C100.125008,180.956335 100.358752,181.189968 100.358752,181.478168 C100.358752,181.766368 100.125008,182 99.8366703,182 L86.1066479,182 L83.3815988,165.043665 L80.5220814,165.043665 C80.2337438,165.043665 80,164.810032 80,164.521832 C80,164.233632 80.2337438,164 80.5220814,164 L84.2714198,164 L85.0364959,168.760606 Z M89,187 C87.8954305,187 87,186.104569 87,185 C87,183.895431 87.8954305,183 89,183 C90.1045695,183 91,183.895431 91,185 C91,186.104569 90.1045695,187 89,187 Z M97,187 C95.8954305,187 95,186.104569 95,185 C95,183.895431 95.8954305,183 97,183 C98.1045695,183 99,183.895431 99,185 C99,186.104569 98.1045695,187 97,187 Z" id="Combined-Shape"></path>
        </g>
    </g>
</svg>