<?xml version="1.0" encoding="UTF-8"?>
<svg width="20px" height="20px" viewBox="0 0 20 20" version="1.1" xmlns="http://www.w3.org/2000/svg" xmlns:xlink="http://www.w3.org/1999/xlink">
    <!-- Generator: Sketch 54.1 (76490) - https://sketchapp.com -->
    <title>Icon / Checkmark In Circle</title>
    <desc>Created with Sketch.</desc>
    <g id="UI_Mobile" stroke="none" stroke-width="1" fill="none" fill-rule="evenodd">
        <g id="Checkout/Customer-Info-Copy-4" transform="translate(-21.000000, -863.000000)">
            <g id="Icon-/-Checkmark-In-Circle" transform="translate(21.000000, 863.000000)">
                <rect id="Rectangle" stroke="#40465F" stroke-width="1" x="0.5" y="0.5" width="19" height="19" rx="9.5"></rect>
                <path d="M5.49352918,9.38792708 L4.29837177,10.6063243 L7.99847556,14.351446 L8.79328445,14.351446 L15.7197535,7.38284089 L14.3967378,6.15743839 L8.94394412,11.7607465 L8.37531184,12.264057 L5.49352918,9.38792708 Z M5.35603789,10.4508768 L5.35641945,10.6639135 L5.50106441,10.8082747 L5.70162823,10.603811 L5.54951828,10.4498504 L5.35603789,10.4508768 Z M8.33459126,13.6362435 L8.58528893,13.4138552 L8.58528893,13.351446 L8.20735554,13.351446 L8.20735554,13.5092573 L8.33459126,13.6362435 Z M14.651254,7.32971584 L14.6487326,7.20768449 L14.4795416,7.21207578 L14.2802465,7.41258329 L14.4329211,7.55399344 L14.651254,7.32971584 Z M8.39682315,13.3317974 L8.23066504,13.4989663 L8.39689181,13.664188 L8.5630402,13.5000368 L8.39682315,13.3317974 Z" id="Shape" fill="#40465F" fill-rule="nonzero"></path>
            </g>
        </g>
    </g>
</svg>