<?xml version="1.0" encoding="UTF-8"?>
<svg width="16px" height="23px" viewBox="0 0 16 23" version="1.1" xmlns="http://www.w3.org/2000/svg" xmlns:xlink="http://www.w3.org/1999/xlink">
    <!-- Generator: Sketch 53.2 (72643) - https://sketchapp.com -->
    <title>Cup Copy 4</title>
    <desc>Created with Sketch.</desc>
    <defs>
        <linearGradient x1="100%" y1="50%" x2="0%" y2="50%" id="linearGradient-1">
            <stop stop-color="#002C73" offset="0%"></stop>
            <stop stop-color="#1A699F" offset="100%"></stop>
        </linearGradient>
        <linearGradient x1="100%" y1="50%" x2="0%" y2="50%" id="linearGradient-2">
            <stop stop-color="#02205F" offset="0%"></stop>
            <stop stop-color="#3F9EDF" offset="100%"></stop>
        </linearGradient>
    </defs>
    <g id="Style-Guide" stroke="none" stroke-width="1" fill="none" fill-rule="evenodd">
        <g id="Icons" transform="translate(-930.000000, -168.000000)" fill="url(#linearGradient-2)" fill-rule="nonzero">
            <g id="Cup-Copy-4" transform="translate(938.000000, 179.500000) scale(-1, 1) translate(-938.000000, -179.500000) translate(930.000000, 168.000000)">
                <path d="M15.8094974,0.373090411 C15.5738172,0.118241529 15.2353222,-0.0180204234 14.8874518,0.00191884824 L1.10807473,0.00191884824 C0.762177069,-0.0164541268 0.426121615,0.119691562 0.191892743,0.373090411 C-0.161387031,0.814129562 0.00719045457,1.3483255 0.420571767,1.86505454 C0.833953079,2.38178358 1.17257394,2.76751089 1.35727623,4.3468095 C1.54197852,5.92610811 1.63286377,7.01487802 1.63286377,7.01487802 C1.80060237,8.51969615 2.25688702,9.97872124 2.97708598,11.3131903 C3.33622932,11.8954202 4.66139495,13.3422615 4.66139495,13.3422615 L6.70484725,15.3800662 C6.70484725,15.3800662 7.22963629,15.9972298 7.24136342,16.5605373 L7.24869288,16.9142419 L7.24869288,22.6724957 C7.24949994,22.8536065 8.75189015,22.8529548 8.75269723,22.6710401 L8.75269723,16.9127864 L8.75269723,16.5590817 C8.76442436,15.9957743 9.2892134,15.3786106 9.2892134,15.3786106 L11.3326657,13.3408059 C11.3326657,13.3408059 12.6519678,11.8968758 13.0169747,11.3117347 C13.7385269,9.97802272 14.196304,8.51949281 14.3655945,7.01487802 C14.3655945,7.01487802 14.4579457,5.93047483 14.6411821,4.3468095 C14.8244185,2.76314416 15.1630394,2.38323915 15.5764207,1.87233241 C15.989802,1.36142567 16.1627771,0.814129562 15.8094974,0.373090411 Z" id="Path"></path>
            </g>
        </g>
    </g>
</svg>