<?xml version="1.0" encoding="UTF-8"?>
<svg width="108px" height="107px" viewBox="0 0 108 107" version="1.1" xmlns="http://www.w3.org/2000/svg" xmlns:xlink="http://www.w3.org/1999/xlink">
    <!-- Generator: Sketch 54.1 (76490) - https://sketchapp.com -->
    <title>Group 9 Copy</title>
    <desc>Created with Sketch.</desc>
    <g id="Desktop" stroke="none" stroke-width="1" fill="none" fill-rule="evenodd">
        <g id="Group-9-Copy" transform="translate(1.000000, 0.000000)" fill="#033B68">
            <circle id="Oval" cx="53" cy="93.9594727" r="1"></circle>
            <path d="M30.7660301,60.3555872 C11.7714402,64.221282 -0.75,72.7077406 -0.75,82.4594727 C-0.75,96.0190848 23.3602364,106.709473 53,106.709473 C82.6397636,106.709473 106.75,96.0190848 106.75,82.4594727 C106.75,72.5302423 93.7657191,63.9202475 74.2425908,60.1592389 L73.9588424,61.6321568 C92.8526693,65.2719343 105.25,73.4927171 105.25,82.4594727 C105.25,94.8572437 81.9024199,105.209473 53,105.209473 C24.0975801,105.209473 0.75,94.8572437 0.75,82.4594727 C0.75,73.6589737 12.6931611,65.5644463 31.0651713,61.8254561 L30.7660301,60.3555872 Z" id="Path" fill-rule="nonzero"></path>
            <path d="M61.6286265,94.1123579 C61.2185552,94.1707903 60.8387578,93.8857306 60.7803254,93.4756593 C60.721893,93.0655879 61.0069527,92.6857905 61.4170241,92.6273581 C72.5976892,91.0341886 80.25,86.4318762 80.25,81.4594727 C80.25,76.9134782 73.8384847,72.6329403 64.0043401,70.7255804 C63.5977043,70.6467123 63.3319961,70.2531335 63.4108643,69.8464977 C63.4897324,69.4398619 63.8833112,69.1741537 64.289947,69.2530219 C74.7519826,71.282163 81.75,75.9542689 81.75,81.4594727 C81.75,87.4445182 73.4684713,92.4252598 61.6286265,94.1123579 Z M40.6658625,69.4669095 C41.0707458,69.3794889 41.4698371,69.6368432 41.5572578,70.0417265 C41.6446784,70.4466098 41.3873241,70.845701 40.9824408,70.9331217 C31.6931829,72.9388188 25.75,77.083854 25.75,81.4594727 C25.75,86.278507 32.9449983,90.7680761 43.6450803,92.4853268 C44.0540604,92.5509638 44.3323949,92.9357169 44.2667579,93.3446969 C44.2011209,93.753677 43.8163678,94.0320115 43.4073877,93.9663745 C32.0589741,92.1450733 24.25,87.2723928 24.25,81.4594727 C24.25,76.1471655 30.762214,71.6052632 40.6658625,69.4669095 Z" id="Shape" fill-rule="nonzero"></path>
            <path d="M28.5607341,36.6750323 C27.044537,40.0355794 26.25,43.6922302 26.25,47.4594727 C26.25,61.9569473 38.0025253,73.7094727 52.5,73.7094727 C66.9974747,73.7094727 78.75,61.9569473 78.75,47.4594727 C78.75,43.7416657 77.9762009,40.1313354 76.4981638,36.8065422 L76.442933,36.7044231 L53.130101,0.593216614 C52.8347543,0.135729333 52.1656737,0.135563654 51.8701005,0.592904609 L28.6144746,36.5763787 L28.5607341,36.6750323 Z M52.4996577,2.38226965 L75.1509137,37.4687054 C76.5288401,40.5879884 77.25,43.9723063 77.25,47.4594727 C77.25,61.1285202 66.1690476,72.2094727 52.5,72.2094727 C38.8309524,72.2094727 27.75,61.1285202 27.75,47.4594727 C27.75,43.925055 28.4908595,40.4964856 29.905079,37.3429042 L52.4996577,2.38226965 Z" id="Path" fill-rule="nonzero"></path>
        </g>
    </g>
</svg>