<?xml version="1.0" encoding="UTF-8"?>
<svg width="15px" height="15px" viewBox="0 0 15 15" version="1.1" xmlns="http://www.w3.org/2000/svg" xmlns:xlink="http://www.w3.org/1999/xlink">
    <!-- Generator: Sketch 53.2 (72643) - https://sketchapp.com -->
    <title>Icon / Error</title>
    <desc>Created with Sketch.</desc>
    <g id="Symbols" stroke="none" stroke-width="1" fill="none" fill-rule="evenodd">
        <g id="Error-/-Banner" transform="translate(-62.000000, -20.000000)">
            <g id="Icon-/-Error" transform="translate(62.000000, 20.000000)">
                <g id="Group" fill="#FFFFFF" fill-opacity="0">
                    <rect id="Rectangle" x="0" y="0" width="15" height="15"></rect>
                </g>
                <path d="M2.19726563,12.8027344 C3.66211688,14.2675854 5.4296775,15 7.5,15 C9.5703225,15 11.3378831,14.2675854 12.8027344,12.8027344 C14.2675856,11.3378831 15,9.5703225 15,7.5 C15,5.4296775 14.2675856,3.66211687 12.8027344,2.19726562 C11.3378831,0.732414375 9.5703225,0 7.5,0 C5.4296775,0 3.66211688,0.732414375 2.19726563,2.19726562 C0.732414563,3.66211687 0,5.4296775 0,7.5 C0,9.5703225 0.732414563,11.3378831 2.19726563,12.8027344 Z" id="Path" fill="#DF2742"></path>
                <path d="M8.4375,8.4375 C8.4375,8.69140687 8.34472688,8.9111325 8.15917875,9.09667875 C7.9736325,9.28222687 7.75390688,9.375 7.5,9.375 C7.24609313,9.375 7.0263675,9.28222687 6.84082125,9.09667875 C6.65527313,8.9111325 6.5625,8.69140687 6.5625,8.4375 L6.5625,3.75 C6.5625,3.49609312 6.65527313,3.2763675 6.84082125,3.09082125 C7.0263675,2.90527312 7.24609313,2.8125 7.5,2.8125 C7.75390688,2.8125 7.9736325,2.90527312 8.15917875,3.09082125 C8.34472688,3.2763675 8.4375,3.49609312 8.4375,3.75 L8.4375,8.4375 Z M6.82617188,10.5761719 C7.021485,10.3808587 7.24609313,10.2832031 7.5,10.2832031 C7.75390688,10.2832031 7.9736325,10.3759762 8.15917875,10.5615225 C8.34472688,10.7470706 8.4375,10.9716787 8.4375,11.2353525 C8.4375,11.4990244 8.34472688,11.71875 8.15917875,11.8945312 C7.9736325,12.0703125 7.75390688,12.1582031 7.5,12.1582031 C7.24609313,12.1582031 7.0263675,12.0703125 6.84082125,11.8945312 C6.65527313,11.71875 6.5625,11.4990244 6.5625,11.2353525 C6.5625,10.9716787 6.65039062,10.7519531 6.82617188,10.5761719 Z" id="Combined-Shape" fill="#FFFFFF"></path>
            </g>
        </g>
    </g>
</svg>