<?xml version="1.0" encoding="UTF-8"?>
<svg width="10px" height="10px" viewBox="0 0 10 10" version="1.1" xmlns="http://www.w3.org/2000/svg" xmlns:xlink="http://www.w3.org/1999/xlink">
    <!-- Generator: Sketch 53.2 (72643) - https://sketchapp.com -->
    <title>Oval Copy 2</title>
    <desc>Created with Sketch.</desc>
    <g id="Style-Guide" stroke="none" stroke-width="1" fill="none" fill-rule="evenodd">
        <g id="Icons" transform="translate(-813.000000, -174.000000)" fill="#002C73">
            <path d="M818,184 C815.238576,184 813,181.761424 813,179 C813,176.238576 815.238576,174 818,174 C820.761424,174 823,176.238576 823,179 C823,181.761424 820.761424,184 818,184 Z M818,182.888889 C820.147774,182.888889 821.888889,181.147774 821.888889,179 C821.888889,176.852226 820.147774,175.111111 818,175.111111 C815.852226,175.111111 814.111111,176.852226 814.111111,179 C814.111111,181.147774 815.852226,182.888889 818,182.888889 Z" id="Oval-Copy-2" transform="translate(818.000000, 179.000000) scale(-1, 1) translate(-818.000000, -179.000000) "></path>
        </g>
    </g>
</svg>