<?xml version="1.0" encoding="UTF-8"?>
<svg width="19px" height="19px" viewBox="0 0 19 19" version="1.1" xmlns="http://www.w3.org/2000/svg" xmlns:xlink="http://www.w3.org/1999/xlink">
    <!-- Generator: Sketch 53.2 (72643) - https://sketchapp.com -->
    <title>Fill 1</title>
    <desc>Created with Sketch.</desc>
    <defs>
        <linearGradient x1="100%" y1="50%" x2="0%" y2="50%" id="linearGradient-1">
            <stop stop-color="#3F9EDF" offset="0%"></stop>
            <stop stop-color="#02205F" offset="100%"></stop>
        </linearGradient>
    </defs>
    <g id="Symbols" stroke="none" stroke-width="1" fill="none" fill-rule="evenodd">
        <g id="Header-/-Mobile-/-Checkout" transform="translate(-120.000000, -25.000000)" fill="#225C73">
            <path d="M139,40.0056803 C139,40.2485807 138.955019,40.565695 138.865056,40.9570324 C138.775094,41.3483683 138.680637,41.6564855 138.581676,41.8813918 C138.392755,42.3312048 137.843991,42.8079992 136.935371,43.3117897 C136.089721,43.7705989 135.253082,44 134.425425,44 C134.182528,44 133.944132,43.9842568 133.710227,43.9527699 C133.476325,43.921283 133.217686,43.8650572 132.934305,43.7840909 C132.650921,43.7031246 132.439515,43.6379026 132.30007,43.5884233 C132.160629,43.538944 131.910988,43.4467336 131.551138,43.3117897 C131.191286,43.1768457 130.97088,43.0958808 130.889917,43.068892 C130.008281,42.754023 129.22112,42.3806838 128.528411,41.9488636 C127.385883,41.2381591 126.198396,40.266578 124.965909,39.0340911 C123.733422,37.8016042 122.761841,36.6141167 122.051136,35.4715892 C121.619316,34.7788799 121.245977,33.9917193 120.931108,33.1100834 C120.904119,33.0291197 120.823154,32.8087145 120.68821,32.4488618 C120.553266,32.0890122 120.461056,31.8393712 120.411577,31.6999297 C120.362097,31.5604853 120.296875,31.3490787 120.215909,31.065695 C120.134943,30.7823143 120.078717,30.5236746 120.04723,30.289773 C120.015743,30.0558683 120,29.8174718 120,29.5745745 C120,28.7469185 120.229401,27.9102789 120.68821,27.0646286 C121.192001,26.1560088 121.668795,25.6072448 122.118608,25.4183243 C122.343515,25.3193632 122.651632,25.224906 123.042968,25.1349436 C123.434305,25.0449812 123.751419,25 123.99432,25 C124.120265,25 124.214725,25.0134935 124.2777,25.0404834 C124.439631,25.0944602 124.67803,25.4363126 124.992899,26.0660495 C125.091857,26.2369786 125.226797,26.479876 125.397727,26.7947444 C125.568656,27.1096128 125.726089,27.3952394 125.870028,27.6516332 C126.01397,27.908027 126.153409,28.1486724 126.288352,28.3735784 C126.315342,28.409564 126.394057,28.5220155 126.524503,28.7109359 C126.654949,28.8998594 126.751658,29.059538 126.81463,29.1899838 C126.877606,29.3204296 126.90909,29.4486265 126.90909,29.5745745 C126.90909,29.7544993 126.780896,29.9794023 126.524503,30.2492896 C126.268109,30.5191768 125.989229,30.7665689 125.687854,30.991478 C125.386482,31.216384 125.107602,31.4547805 124.851208,31.7066764 C124.594815,31.9585694 124.466621,32.1654811 124.466621,32.3274147 C124.466621,32.4083815 124.48911,32.5095884 124.534091,32.6310356 C124.579072,32.7524857 124.617307,32.844697 124.648792,32.9076695 C124.680279,32.970645 124.743252,33.0785987 124.837712,33.2315336 C124.932175,33.3844685 124.983903,33.4699331 124.992899,33.4879244 C125.676613,34.7204143 126.459275,35.777456 127.340908,36.6590919 C128.222544,37.5407247 129.279586,38.3233874 130.512076,39.0071012 C130.530067,39.0160968 130.615532,39.0678248 130.768466,39.162288 C130.921401,39.2567482 131.029355,39.3197207 131.09233,39.3512085 C131.155303,39.3826932 131.247514,39.4209277 131.368964,39.4659089 C131.490412,39.5108901 131.591619,39.5333792 131.672585,39.5333792 C131.834519,39.5333792 132.041431,39.4051853 132.293324,39.1487915 C132.54522,38.8923977 132.783616,38.6135179 133.008522,38.3121459 C133.233431,38.0107709 133.480823,37.7318911 133.75071,37.4754973 C134.020598,37.2191035 134.245501,37.0909096 134.425425,37.0909096 C134.551373,37.0909096 134.67957,37.1223944 134.810016,37.1853699 C134.940462,37.2483424 135.100141,37.3450515 135.289064,37.4754973 C135.477985,37.6059431 135.590436,37.6846579 135.626422,37.7116479 C135.851328,37.8465915 136.091973,37.9860299 136.348367,38.1299722 C136.604761,38.2739114 136.890387,38.4313442 137.205256,38.6022733 C137.520124,38.7732025 137.763021,38.9081431 137.933951,39.0071012 C138.563687,39.3219696 138.90554,39.5603691 138.959517,39.7222996 C138.986507,39.7852751 139,39.8797354 139,40.0056803 Z" id="Fill-1"></path>
        </g>
    </g>
</svg>