<?xml version="1.0" encoding="UTF-8"?>
<svg width="21px" height="20px" viewBox="0 0 21 20" version="1.1" xmlns="http://www.w3.org/2000/svg" xmlns:xlink="http://www.w3.org/1999/xlink">
    <!-- Generator: Sketch 53.2 (72643) - https://sketchapp.com -->
    <title>Group 10 Copy</title>
    <desc>Created with Sketch.</desc>
    <g id="Style-Guide" stroke="none" stroke-width="1" fill="none" fill-rule="evenodd">
        <g id="Colors" transform="translate(-85.000000, -376.000000)">
            <g id="Group-10-Copy" transform="translate(85.000000, 376.000000)">
                <polygon id="Path-3" fill="#40465F" points="0 0 0 20 4.9826947 14.625 21 14.625 21 0"></polygon>
                <path d="M8,3.89634146 C8.14699598,3.77438963 8.30804063,3.65853713 8.48313878,3.54878049 C8.65823693,3.43902384 8.84738333,3.34349634 9.05058366,3.26219512 C9.25378398,3.1808939 9.47427464,3.11687015 9.71206226,3.07012195 C9.94984987,3.02337375 10.207089,3 10.4837873,3 C10.8599241,3 11.2025493,3.04878 11.5116732,3.14634146 C11.820797,3.24390293 12.085602,3.38312918 12.306096,3.56402439 C12.5265899,3.7449196 12.6973621,3.96341335 12.8184176,4.2195122 C12.9394732,4.47561104 13,4.76219354 13,5.07926829 C13,5.38821293 12.9524432,5.65548668 12.8573281,5.88109756 C12.7622131,6.10670845 12.6422402,6.3028447 12.497406,6.4695122 C12.3525717,6.6361797 12.1958504,6.7804872 12.0272374,6.90243902 C11.8586243,7.02439085 11.6986605,7.1392271 11.5473411,7.24695122 C11.3960217,7.35467534 11.2652405,7.46036534 11.1549935,7.56402439 C11.0447465,7.66768345 10.9788155,7.7845522 10.9571984,7.91463415 L10.8080415,8.80487805 L9.71206226,8.80487805 L9.60181582,7.81097561 C9.59749241,7.7906503 9.59533074,7.77337405 9.59533074,7.75914634 L9.59533074,7.70731707 C9.59533074,7.52845439 9.64288755,7.37296814 9.73800259,7.24085366 C9.83311764,7.10873918 9.95200966,6.98475668 10.0946822,6.86890244 C10.2373548,6.7530482 10.3908336,6.64024445 10.5551232,6.5304878 C10.7194128,6.42073116 10.8728916,6.30182991 11.0155642,6.17378049 C11.1582368,6.04573107 11.2771288,5.90040732 11.3722438,5.73780488 C11.4673589,5.57520244 11.5149157,5.38414744 11.5149157,5.16463415 C11.5149157,5.01829195 11.4857331,4.8871957 11.4273671,4.77134146 C11.369001,4.65548723 11.2879383,4.55589473 11.1841764,4.47256098 C11.0804145,4.38922723 10.9561183,4.32520348 10.811284,4.2804878 C10.6664498,4.23577213 10.5097285,4.21341463 10.3411154,4.21341463 C10.094681,4.21341463 9.88607954,4.23882088 9.7153048,4.28963415 C9.54453006,4.34044741 9.39969796,4.39735741 9.28080415,4.46036585 C9.16191034,4.5233743 9.06139254,4.5802843 8.97924773,4.63109756 C8.89710292,4.68191082 8.82360603,4.70731707 8.75875486,4.70731707 C8.60311206,4.70731707 8.49070506,4.64634207 8.42153048,4.52439024 L8,3.89634146 Z M9.22568093,11.0853659 C9.22568093,10.959349 9.25054018,10.8394315 9.3002594,10.7256098 C9.34997863,10.611788 9.41915217,10.514228 9.5077821,10.4329268 C9.59641203,10.3516256 9.70125318,10.2865856 9.82230869,10.2378049 C9.9433642,10.1890241 10.0730646,10.1646341 10.2114137,10.1646341 C10.3454395,10.1646341 10.4729782,10.1890241 10.5940337,10.2378049 C10.7150892,10.2865856 10.8188495,10.3516256 10.9053178,10.4329268 C10.991786,10.514228 11.0609595,10.611788 11.1128405,10.7256098 C11.1647214,10.8394315 11.1906615,10.959349 11.1906615,11.0853659 C11.1906615,11.2154478 11.1647214,11.3363816 11.1128405,11.4481707 C11.0609595,11.5599599 10.991786,11.6565037 10.9053178,11.7378049 C10.8188495,11.8191061 10.7150892,11.8831298 10.5940337,11.929878 C10.4729782,11.9766263 10.3454395,12 10.2114137,12 C10.0730646,12 9.9433642,11.9766263 9.82230869,11.929878 C9.70125318,11.8831298 9.59641203,11.8191061 9.5077821,11.7378049 C9.41915217,11.6565037 9.34997863,11.5599599 9.3002594,11.4481707 C9.25054018,11.3363816 9.22568093,11.2154478 9.22568093,11.0853659 Z" id="?" fill="#FFFFFF" fill-rule="nonzero"></path>
            </g>
        </g>
    </g>
</svg>