<?xml version="1.0" encoding="UTF-8"?>
<svg width="13px" height="13px" viewBox="0 0 13 13" version="1.1" xmlns="http://www.w3.org/2000/svg" xmlns:xlink="http://www.w3.org/1999/xlink">
    <!-- Generator: Sketch 53.2 (72643) - https://sketchapp.com -->
    <title>Combined Shape</title>
    <desc>Created with Sketch.</desc>
    <g id="Style-Guide" stroke="none" stroke-width="1" fill="none" fill-rule="evenodd">
        <g id="Icons" transform="translate(-90.000000, -296.000000)" fill="#40465F">
            <path d="M95.4272641,302.426435 L90.3650921,297.275712 C90.0747494,296.980291 90.0788666,296.505435 90.3742883,296.215092 C90.6697099,295.924749 91.1445658,295.928866 91.4349086,296.224288 L96.4788464,301.356458 L101.522784,296.224288 C101.813127,295.928866 102.287983,295.924749 102.583405,296.215092 C102.878826,296.505435 102.882943,296.980291 102.592601,297.275712 L97.5304287,302.426435 L102.742601,307.729783 C103.032944,308.025204 103.028826,308.50006 102.733405,308.790403 C102.437983,309.080746 101.963127,309.076628 101.672784,308.781207 L96.4788464,303.496413 L91.2849084,308.781207 C90.9945656,309.076628 90.5197097,309.080746 90.2242881,308.790403 C89.9288664,308.50006 89.9247492,308.025204 90.215092,307.729783 L95.4272641,302.426435 Z" id="Combined-Shape"></path>
        </g>
    </g>
</svg>